<?xml version="1.0" encoding="UTF-8" standalone="no"?>
<!DOCTYPE svg PUBLIC "-//W3C//DTD SVG 1.1//EN" "http://www.w3.org/Graphics/SVG/1.1/DTD/svg11.dtd">
<svg width="100%" height="100%" viewBox="0 0 438 300" version="1.1" xmlns="http://www.w3.org/2000/svg" xmlns:xlink="http://www.w3.org/1999/xlink" xml:space="preserve" xmlns:serif="http://www.serif.com/" style="fill-rule:evenodd;clip-rule:evenodd;stroke-linecap:round;stroke-linejoin:round;stroke-miterlimit:1.5;">
    <g transform="matrix(1,0,0,1,-234.180567,0)">
        <rect x="234.181" y="0" width="437.927" height="300"/>
    </g>
    <g transform="matrix(1,0,0,1,-234.180567,0)">
        <g transform="matrix(0.371268,-0,0,0.38309,163.210616,169.090562)">
            <path d="M256.844,162.393L661.342,57.127" style="fill:none;stroke:rgb(251,219,48);stroke-width:4.95px;"/>
        </g>
        <g transform="matrix(0.371268,-0,0,0.38309,163.210616,179.622391)">
            <path d="M256.844,162.393L661.342,57.127" style="fill:none;stroke:rgb(251,219,48);stroke-width:4.95px;"/>
        </g>
        <g transform="matrix(0.371268,-0,0,0.38309,163.210616,189.253765)">
            <path d="M256.844,162.393L661.342,57.127" style="fill:none;stroke:rgb(251,219,48);stroke-width:4.95px;"/>
        </g>
        <g transform="matrix(0.371268,-0,0,0.38309,163.210616,199.785593)">
            <path d="M256.844,162.393L661.342,57.127" style="fill:none;stroke:rgb(251,219,48);stroke-width:4.95px;"/>
        </g>
        <g transform="matrix(0.371268,-0,0,0.38309,163.210616,209.416968)">
            <path d="M256.844,162.393L661.342,57.127" style="fill:none;stroke:rgb(251,219,48);stroke-width:4.95px;"/>
        </g>
        <g transform="matrix(0.371268,-0,0,0.38309,163.210616,219.948796)">
            <path d="M256.844,162.393L661.342,57.127" style="fill:none;stroke:rgb(251,219,48);stroke-width:4.95px;"/>
        </g>
        <g transform="matrix(0.371268,-0,0,0.38309,163.210616,229.58017)">
            <path d="M256.844,162.393L661.342,57.127" style="fill:none;stroke:rgb(251,219,48);stroke-width:4.95px;"/>
        </g>
        <g transform="matrix(0.371268,-0,0,0.38309,401.805049,106.743567)">
            <path d="M537.861,89.261L661.342,57.127" style="fill:none;stroke:rgb(251,219,48);stroke-width:4.95px;"/>
        </g>
        <g transform="matrix(0.371268,-0,0,0.38309,401.805049,117.275395)">
            <path d="M527.464,91.967L661.342,57.127" style="fill:none;stroke:rgb(251,219,48);stroke-width:4.95px;"/>
        </g>
        <g transform="matrix(0.371268,-0,0,0.38309,401.805049,126.90677)">
            <path d="M517.505,94.559L661.342,57.127" style="fill:none;stroke:rgb(251,219,48);stroke-width:4.95px;"/>
        </g>
        <g transform="matrix(0.371268,-0,0,0.38309,401.805049,137.438598)">
            <path d="M508.329,96.947L661.342,57.127" style="fill:none;stroke:rgb(251,219,48);stroke-width:4.95px;"/>
        </g>
        <g transform="matrix(0.371268,-0,0,0.38309,401.805049,147.069972)">
            <path d="M498.191,99.585L661.342,57.127" style="fill:none;stroke:rgb(251,219,48);stroke-width:4.95px;"/>
        </g>
        <g transform="matrix(0.371268,-0,0,0.38309,401.805049,157.601801)">
            <path d="M498.191,99.585L661.342,57.127" style="fill:none;stroke:rgb(251,219,48);stroke-width:4.95px;"/>
        </g>
        <g transform="matrix(0.371268,-0,0,0.38309,401.805049,167.233175)">
            <path d="M498.191,99.585L661.342,57.127" style="fill:none;stroke:rgb(251,219,48);stroke-width:4.95px;"/>
        </g>
        <g transform="matrix(0.067089,-0,0,0.069225,241.337301,110.128597)">
            <path d="M256.844,162.393L661.342,57.127" style="fill:none;stroke:rgb(251,219,48);stroke-width:27.38px;"/>
        </g>
        <g transform="matrix(0.067089,-0,0,0.069225,241.337301,119.759972)">
            <path d="M256.844,162.393L661.342,57.127" style="fill:none;stroke:rgb(251,219,48);stroke-width:27.38px;"/>
        </g>
        <g transform="matrix(0.067089,-0,0,0.069225,241.337301,130.2918)">
            <path d="M256.844,162.393L661.342,57.127" style="fill:none;stroke:rgb(251,219,48);stroke-width:27.38px;"/>
        </g>
        <g transform="matrix(0.067089,-0,0,0.069225,241.337301,139.923174)">
            <path d="M256.844,162.393L661.342,57.127" style="fill:none;stroke:rgb(251,219,48);stroke-width:27.38px;"/>
        </g>
    </g>
    <g transform="matrix(1,0,0,1,-234.180567,0)">
        <g transform="matrix(1,0,0,1,307.374042,-8.75941)">
            <path d="M257.296,159.157L265.327,178.697L272.925,155.09L288.45,151.049L271.518,193.71L271.557,215.84L258.569,219.22L258.569,194.365L242.872,162.911L257.296,159.157Z" style="fill:white;"/>
        </g>
        <g transform="matrix(1,0,0,1,188.827832,-48.90811)">
            <path d="M258.569,161.712L271.456,158.358L271.539,205.489L290.938,200.441L290.938,210.796L258.569,219.22L258.569,161.712Z" style="fill:white;"/>
        </g>
        <g transform="matrix(1,0,0,1,226.227347,12.583327)">
            <path d="M258.569,158.601L271.456,155.247L271.539,205.489L290.938,200.441L290.938,210.796L258.569,219.22L258.569,158.601Z" style="fill:white;"/>
        </g>
        <g transform="matrix(1,0,0,1,205.038046,18.094914)">
            <path d="M258.569,158.895L271.456,155.249L271.557,215.84L258.569,219.22L258.569,158.895Z" style="fill:white;"/>
        </g>
        <g transform="matrix(1,0,0,1,158.283115,30.379065)">
            <path d="M258.569,158.487L271.456,155.133L271.59,177.09L283.453,174.003L283.453,152.011L296.34,148.657L296.429,209.599L283.453,212.943L283.363,187.457L271.59,190.521L271.545,216.075L258.569,219.452L258.569,158.487Z" style="fill:white;"/>
        </g>
        <path d="M620.902,89.44L620.902,125.13L608.546,128.374L608.546,70.85L622.807,67.155L635.714,100.109L635.714,63.778L647.34,60.771L647.34,118.279L633.312,121.929L620.902,89.44Z" style="fill:white;"/>
        <g transform="matrix(1,0,0,1,306.191855,-79.610962)">
            <path d="M258.569,179.57C259.316,167.942 265.667,159.939 279.05,156.487C290.245,153.654 297.021,159.984 297.077,173.373L297.077,192.727C296.205,206.584 288.072,211.534 275.175,215.059C261.946,218.673 258.89,206.955 258.569,202.254C258.128,195.804 258.569,179.57 258.569,179.57ZM271.259,181.984C271.259,181.984 271.109,192.819 271.259,197.124C271.368,200.261 272.127,207.037 276.9,205.67C281.68,204.3 284.043,200.014 284.34,190.765L284.34,177.848C284.32,168.913 282.062,165.856 278.216,166.578C272.611,167.632 271.513,174.223 271.259,181.984Z" style="fill:white;"/>
        </g>
        <g transform="matrix(1,0,0,1,262.402641,-68.160324)">
            <path d="M258.569,161.817L271.628,158.418C288.477,154.155 297.021,159.984 297.077,173.373L297.077,192.727C297.041,203.17 288.606,211.706 271.545,215.948L258.569,219.325L258.569,161.817ZM271.167,169.893L271.167,205.6L275.483,204.443C282.849,202.608 283.966,196.011 283.978,189.119L284.027,177.882C284.265,170.903 282.085,167.011 276.793,168.397L271.167,169.893Z" style="fill:white;"/>
        </g>
        <g transform="matrix(1,0,0,1,223.701441,-58.264444)">
            <path d="M258.569,161.944L292.754,153.048L292.754,164.359L271.483,169.895L271.502,181.317L290.703,176.321L290.703,187L271.516,191.994L271.534,205.771L292.754,200.249L292.754,210.607L258.569,219.501L258.569,161.944Z" style="fill:white;"/>
        </g>
        <g transform="matrix(1,0,0,1,266.134712,2.168634)">
            <path d="M258.569,158.63L271.456,155.276L271.539,205.489L290.938,200.441L290.938,210.796L258.569,219.22L258.569,158.63Z" style="fill:white;"/>
        </g>
        <g transform="matrix(1,0,0,1,145.04872,-37.729362)">
            <path d="M258.554,161.93L275.85,157.429C285.747,155.245 294.303,155.687 294.136,168.886C294.041,176.354 288.137,180.859 288.137,180.859C288.137,180.859 297.253,181.796 296.399,196.609C295.839,206.321 286.555,212.44 271.248,216.153L258.593,219.428L258.554,161.93ZM271.397,181.258L276.82,179.922C280.182,178.977 281.684,175.747 281.64,172.665C281.585,168.902 279.069,167.721 276.82,168.229L271.397,169.56L271.397,181.258ZM271.397,205.741L277.505,204.164C281.291,203.049 282.983,199.239 282.933,195.602C282.872,191.162 280.037,189.769 277.505,190.368L271.397,191.938L271.397,205.741Z" style="fill:white;"/>
        </g>
        <g transform="matrix(1,0,0,1,87.105154,-22.656664)">
            <path d="M279.72,213.936L270.203,171.769L270.354,216.374L258.524,219.452L258.56,161.935L276.936,157.153L284.478,190.563L292.081,153.211L310.274,148.477L310.404,205.951L298.634,209.014L298.634,167.642L289.197,211.47L279.72,213.936Z" style="fill:white;"/>
        </g>
        <path d="M313.971,192.899L311.431,205.695L297.944,209.205L313.287,147.704L327.991,143.878L343.467,197.358L330.197,200.812L327.544,189.367L313.971,192.899ZM325.221,179.351L320.609,159.458L316.194,181.7L325.221,179.351Z" style="fill:white;"/>
        <path d="M258.569,161.944L271.456,158.59L271.59,179.808L283.453,176.72L283.453,155.468L296.34,152.115L296.429,209.599L283.453,212.943L283.363,187.457L271.59,190.521L271.545,216.075L258.569,219.452L258.569,161.944Z" style="fill:white;"/>
        <g transform="matrix(0.561614,0,0,0.561614,192.687884,8.028278)">
            <path d="M258.569,161.647L292.754,152.751L292.754,164.062L271.483,169.598L271.502,181.02L290.703,176.023L290.703,186.703L271.516,191.696L271.534,205.474L292.754,199.952L292.754,210.31L258.569,219.204L258.569,161.647Z" style="fill:white;"/>
        </g>
        <g transform="matrix(0.561614,0,0,0.561614,168.582418,14.087047)">
            <path d="M258.569,162.433L271.456,159.079L271.59,180.297L283.453,177.209L283.453,155.957L296.34,152.604L296.429,210.088L283.453,213.432L283.363,187.946L271.59,191.01L271.545,216.564L258.569,219.941L258.569,162.433Z" style="fill:white;"/>
        </g>
        <g transform="matrix(0.561614,0,0,0.561614,152.556642,19.835735)">
            <path d="M245.603,163.258L283.528,153.075L283.557,164.134L271.48,167.378L271.557,213.987L258.569,217.368L258.569,170.845L245.593,174.329L245.603,163.258Z" style="fill:white;"/>
        </g>
    </g>
    <g transform="matrix(1,0,0,1,-234.180567,0)">
        <path d="M362.997,124.399L369.53,89.298L378.937,88.863L390.085,63.778L409.073,63.169L423.635,35.907L447.935,36.952L461.058,17.966L493.501,27.944L512.2,20.787L538.058,7.586L560.104,16.296L573.578,12.758L604.198,22.284L640.943,31.402L645.216,51.375L643.027,52.157L636.588,54.469L589.246,54.502L575.228,39.668L552.229,38.307L512.898,67.159L476.561,49.33L440.905,84.578L426.207,85.65L406.501,92.727L393.872,111.671L384.879,118.714L368.853,123.94L362.997,124.399Z" style="fill:white;"/>
    </g>
    <g transform="matrix(1,0,0,1,-234.180567,0)">
        <path d="M367.424,124.052L373.658,105.912L383.321,98.699L394.889,80.871L411.628,74.475L429.32,50.25L452.047,48.481L465.657,33.647L507.981,43.31L526.898,36.233L542.413,17.861L559.968,27.251L577.252,27.659L605.832,42.085L633.05,42.221L643.027,52.157L636.588,54.469L589.246,54.502L575.228,39.668L552.229,38.307L512.898,67.159L476.561,49.33L440.905,84.578L426.207,85.65L406.501,92.727L393.872,111.671L384.879,118.714L368.853,123.94L367.424,124.052Z" style="fill:rgb(251,219,48);"/>
    </g>
</svg>
